<svg xmlns="http://www.w3.org/2000/svg" xmlns:xlink="http://www.w3.org/1999/xlink" width="300" zoomAndPan="magnify" viewBox="0 0 224.87999 225" height="300" preserveAspectRatio="xMidYMid meet" version="1.0"><defs><clipPath id="2e8db527d8"><path d="M 0 0.0585938 L 224.761719 0.0585938 L 224.761719 224.9375 L 0 224.9375 Z M 0 0.0585938 " clip-rule="nonzero"/></clipPath><clipPath id="900fcc04a9"><path d="M 0 0.0585938 L 224.761719 0.0585938 L 224.761719 224.9375 L 0 224.9375 Z M 0 0.0585938 " clip-rule="nonzero"/></clipPath><clipPath id="6613503a96"><rect x="0" width="225" y="0" height="225"/></clipPath><clipPath id="23cb4feaf4"><path d="M 46.105469 64.375 L 178.785156 64.375 L 178.785156 160.324219 L 46.105469 160.324219 Z M 46.105469 64.375 " clip-rule="nonzero"/></clipPath></defs><g clip-path="url(#2e8db527d8)"><path fill="#ffffff" d="M 0 0.0585938 L 224.878906 0.0585938 L 224.878906 224.941406 L 0 224.941406 Z M 0 0.0585938 " fill-opacity="1" fill-rule="nonzero"/><path fill="#ffffff" d="M 0 0.0585938 L 224.878906 0.0585938 L 224.878906 224.941406 L 0 224.941406 Z M 0 0.0585938 " fill-opacity="1" fill-rule="nonzero"/><g transform="matrix(1, 0, 0, 1, 0, -0.000000000000003234)"><g clip-path="url(#6613503a96)"><g clip-path="url(#900fcc04a9)"><path fill="#000000" d="M 0 0.0585938 L 224.878906 0.0585938 L 224.878906 224.941406 L 0 224.941406 Z M 0 0.0585938 " fill-opacity="1" fill-rule="nonzero"/></g></g></g></g><g clip-path="url(#23cb4feaf4)"><path fill="#dcf58c" d="M 111.480469 111.667969 L 125.574219 82.898438 L 130.203125 85.171875 L 114.433594 118.15625 L 158.394531 103.703125 L 160.003906 108.589844 L 126.109375 118.824219 L 177.722656 115.746094 L 178.058594 120.832031 L 119.464844 123.710938 L 151.949219 133.746094 L 150.203125 138.628906 L 111.480469 126.050781 L 111.277344 160.304688 L 106.042969 160.304688 L 106.3125 125.179688 L 46.445312 128.59375 L 46.109375 123.507812 L 95.976562 120.566406 L 74.5 113.808594 L 76.175781 108.921875 L 106.3125 118.691406 L 106.582031 64.765625 L 111.679688 64.832031 Z M 111.480469 111.667969 " fill-opacity="1" fill-rule="nonzero"/></g></svg>