<svg xmlns="http://www.w3.org/2000/svg" viewBox="0 0 1200 630">
  <rect width="1200" height="630" fill="#f3efe6"/>
  <g stroke="#111" stroke-width="1" opacity="0.12">
    <path d="M0 72h1200M0 132h1200M0 192h1200M0 252h1200M0 312h1200M0 372h1200M0 432h1200M0 492h1200M0 552h1200"/>
    <path d="M112 0v630M312 0v630M512 0v630M712 0v630M912 0v630"/>
  </g>
  <rect x="62" y="54" width="328" height="34" fill="#fff"/>
  <rect x="810" y="54" width="328" height="34" fill="#fff"/>
  <text x="78" y="78" font-family="monospace" font-size="18" fill="#111">&gt; RELAY44 / DECISION MARKET GRID</text>
  <text x="826" y="78" font-family="monospace" font-size="18" fill="#111">&gt; BASE / AGENTIC EXECUTION SURFACE</text>
  <text x="120" y="320" font-family="monospace" font-size="98" letter-spacing="4" fill="#111">RELAY44</text>
  <rect x="120" y="362" width="360" height="12" fill="#e45714"/>
  <text x="120" y="430" font-family="monospace" font-size="28" fill="#111">MARKETS / AGENTS / THRESHOLD AUTOMATION</text>
  <text x="120" y="506" font-family="monospace" font-size="22" fill="#111">relay44.com</text>
  <rect x="962" y="142" width="18" height="18" fill="#111"/>
  <rect x="992" y="142" width="18" height="18" fill="#e45714"/>
</svg>
