<svg xmlns="http://www.w3.org/2000/svg" xmlns:xlink="http://www.w3.org/1999/xlink" width="859" zoomAndPan="magnify" viewBox="0 0 644.25 401.249997" height="535" preserveAspectRatio="xMidYMid meet" version="1.0"><defs><g/><clipPath id="dc1c619baa"><path d="M 441.636719 11.714844 L 601.1875 11.714844 L 601.1875 53.675781 L 441.636719 53.675781 Z M 441.636719 11.714844 " clip-rule="nonzero"/></clipPath><clipPath id="86832f7cbc"><path d="M 0.636719 0.714844 L 160.1875 0.714844 L 160.1875 42.675781 L 0.636719 42.675781 Z M 0.636719 0.714844 " clip-rule="nonzero"/></clipPath><clipPath id="30eaf833ea"><rect x="0" width="161" y="0" height="43"/></clipPath><clipPath id="22c9e45503"><path d="M 601.183594 53.675781 L 643.144531 53.675781 L 643.144531 213.222656 L 601.183594 213.222656 Z M 601.183594 53.675781 " clip-rule="nonzero"/></clipPath><clipPath id="be144ccf9a"><path d="M 0.183594 0.675781 L 42.144531 0.675781 L 42.144531 160.222656 L 0.183594 160.222656 Z M 0.183594 0.675781 " clip-rule="nonzero"/></clipPath><clipPath id="04acb44f11"><rect x="0" width="43" y="0" height="161"/></clipPath><clipPath id="d48256f993"><path d="M 44.199219 353.730469 L 203.75 353.730469 L 203.75 395.691406 L 44.199219 395.691406 Z M 44.199219 353.730469 " clip-rule="nonzero"/></clipPath><clipPath id="15038acb6b"><path d="M 0.199219 0.730469 L 159.75 0.730469 L 159.75 42.691406 L 0.199219 42.691406 Z M 0.199219 0.730469 " clip-rule="nonzero"/></clipPath><clipPath id="1ebd16e992"><rect x="0" width="160" y="0" height="43"/></clipPath><clipPath id="a09a172154"><path d="M 2.242188 194.183594 L 44.203125 194.183594 L 44.203125 353.730469 L 2.242188 353.730469 Z M 2.242188 194.183594 " clip-rule="nonzero"/></clipPath><clipPath id="d2691744a7"><path d="M 0.242188 0.183594 L 42.203125 0.183594 L 42.203125 159.730469 L 0.242188 159.730469 Z M 0.242188 0.183594 " clip-rule="nonzero"/></clipPath><clipPath id="5b002b0179"><rect x="0" width="43" y="0" height="160"/></clipPath><clipPath id="808545c495"><path d="M 102.996094 107.789062 L 144.957031 107.789062 L 144.957031 267.339844 L 102.996094 267.339844 Z M 102.996094 107.789062 " clip-rule="nonzero"/></clipPath><clipPath id="1f6a5b0e74"><path d="M 0.996094 0.789062 L 42.957031 0.789062 L 42.957031 160.339844 L 0.996094 160.339844 Z M 0.996094 0.789062 " clip-rule="nonzero"/></clipPath><clipPath id="b8d452fcd0"><rect x="0" width="43" y="0" height="161"/></clipPath><clipPath id="5b851497c4"><path d="M 264.164062 107.789062 L 306.125 107.789062 L 306.125 307.871094 L 264.164062 307.871094 Z M 264.164062 107.789062 " clip-rule="nonzero"/></clipPath><clipPath id="d1bfd0c62f"><path d="M 0.164062 0.789062 L 42.125 0.789062 L 42.125 200.871094 L 0.164062 200.871094 Z M 0.164062 0.789062 " clip-rule="nonzero"/></clipPath><clipPath id="78b6e7bfd1"><rect x="0" width="43" y="0" height="201"/></clipPath><clipPath id="425f8242db"><path d="M 123.972656 225.378906 L 283.523438 225.378906 L 283.523438 267.339844 L 123.972656 267.339844 Z M 123.972656 225.378906 " clip-rule="nonzero"/></clipPath><clipPath id="70065ceefb"><path d="M 1 0.378906 L 160.523438 0.378906 L 160.523438 42.339844 L 1 42.339844 Z M 1 0.378906 " clip-rule="nonzero"/></clipPath><clipPath id="59fd2b765c"><rect x="0" width="161" y="0" height="43"/></clipPath><clipPath id="0144df04bd"><path d="M 340.074219 107.789062 L 382.03125 107.789062 L 382.03125 267.339844 L 340.074219 267.339844 Z M 340.074219 107.789062 " clip-rule="nonzero"/></clipPath><clipPath id="6acc18c674"><path d="M 0.0742188 0.789062 L 42.03125 0.789062 L 42.03125 160.339844 L 0.0742188 160.339844 Z M 0.0742188 0.789062 " clip-rule="nonzero"/></clipPath><clipPath id="ea2b1aec82"><rect x="0" width="43" y="0" height="161"/></clipPath><clipPath id="e9211a58b4"><path d="M 501.238281 107.789062 L 543.199219 107.789062 L 543.199219 307.871094 L 501.238281 307.871094 Z M 501.238281 107.789062 " clip-rule="nonzero"/></clipPath><clipPath id="a3b6d1c759"><path d="M 0.238281 0.789062 L 42.199219 0.789062 L 42.199219 200.871094 L 0.238281 200.871094 Z M 0.238281 0.789062 " clip-rule="nonzero"/></clipPath><clipPath id="6102dfa9f9"><rect x="0" width="43" y="0" height="201"/></clipPath><clipPath id="606457d77b"><path d="M 361.050781 225.378906 L 520.597656 225.378906 L 520.597656 267.339844 L 361.050781 267.339844 Z M 361.050781 225.378906 " clip-rule="nonzero"/></clipPath><clipPath id="d1af77a935"><path d="M 0.0507812 0.378906 L 159.597656 0.378906 L 159.597656 42.339844 L 0.0507812 42.339844 Z M 0.0507812 0.378906 " clip-rule="nonzero"/></clipPath><clipPath id="30e7824a04"><rect x="0" width="160" y="0" height="43"/></clipPath><clipPath id="a856afd400"><path d="M 0.226562 0 L 181 0 L 181 72 L 0.226562 72 Z M 0.226562 0 " clip-rule="nonzero"/></clipPath><clipPath id="cfb91ee61c"><rect x="0" width="181" y="0" height="72"/></clipPath><clipPath id="5120205287"><rect x="0" width="52" y="0" height="73"/></clipPath></defs><g clip-path="url(#dc1c619baa)"><g transform="matrix(1, 0, 0, 1, 441, 11)"><g clip-path="url(#30eaf833ea)"><g clip-path="url(#86832f7cbc)"><path fill="#ffffff" d="M 0.636719 0.714844 L 160.121094 0.714844 L 160.121094 42.675781 L 0.636719 42.675781 Z M 0.636719 0.714844 " fill-opacity="1" fill-rule="nonzero"/></g></g></g></g><g clip-path="url(#22c9e45503)"><g transform="matrix(1, 0, 0, 1, 601, 53)"><g clip-path="url(#04acb44f11)"><g clip-path="url(#be144ccf9a)"><path fill="#ffffff" d="M 42.144531 0.675781 L 42.144531 160.160156 L 0.183594 160.160156 L 0.183594 0.675781 Z M 42.144531 0.675781 " fill-opacity="1" fill-rule="nonzero"/></g></g></g></g><g clip-path="url(#d48256f993)"><g transform="matrix(1, 0, 0, 1, 44, 353)"><g clip-path="url(#1ebd16e992)"><g clip-path="url(#15038acb6b)"><path fill="#ffffff" d="M 159.75 42.691406 L 0.265625 42.691406 L 0.265625 0.730469 L 159.75 0.730469 Z M 159.75 42.691406 " fill-opacity="1" fill-rule="nonzero"/></g></g></g></g><g clip-path="url(#a09a172154)"><g transform="matrix(1, 0, 0, 1, 2, 194)"><g clip-path="url(#5b002b0179)"><g clip-path="url(#d2691744a7)"><path fill="#ffffff" d="M 0.242188 159.730469 L 0.242188 0.25 L 42.203125 0.25 L 42.203125 159.730469 Z M 0.242188 159.730469 " fill-opacity="1" fill-rule="nonzero"/></g></g></g></g><g clip-path="url(#808545c495)"><g transform="matrix(1, 0, 0, 1, 102, 107)"><g clip-path="url(#b8d452fcd0)"><g clip-path="url(#1f6a5b0e74)"><path fill="#ffffff" d="M 0.996094 160.339844 L 0.996094 0.855469 L 42.957031 0.855469 L 42.957031 160.339844 Z M 0.996094 160.339844 " fill-opacity="1" fill-rule="nonzero"/></g></g></g></g><g clip-path="url(#5b851497c4)"><g transform="matrix(1, 0, 0, 1, 264, 107)"><g clip-path="url(#78b6e7bfd1)"><g clip-path="url(#d1bfd0c62f)"><path fill="#ffffff" d="M 0.164062 200.871094 L 0.164062 0.738281 L 42.125 0.738281 L 42.125 200.871094 Z M 0.164062 200.871094 " fill-opacity="1" fill-rule="nonzero"/></g></g></g></g><g clip-path="url(#425f8242db)"><g transform="matrix(1, 0, 0, 1, 123, 225)"><g clip-path="url(#59fd2b765c)"><g clip-path="url(#70065ceefb)"><path fill="#ffffff" d="M 160.523438 42.339844 L 1.039062 42.339844 L 1.039062 0.378906 L 160.523438 0.378906 Z M 160.523438 42.339844 " fill-opacity="1" fill-rule="nonzero"/></g></g></g></g><g clip-path="url(#0144df04bd)"><g transform="matrix(1, 0, 0, 1, 340, 107)"><g clip-path="url(#ea2b1aec82)"><g clip-path="url(#6acc18c674)"><path fill="#ffffff" d="M 0.0742188 160.339844 L 0.0742188 0.855469 L 42.03125 0.855469 L 42.03125 160.339844 Z M 0.0742188 160.339844 " fill-opacity="1" fill-rule="nonzero"/></g></g></g></g><g clip-path="url(#e9211a58b4)"><g transform="matrix(1, 0, 0, 1, 501, 107)"><g clip-path="url(#6102dfa9f9)"><g clip-path="url(#a3b6d1c759)"><path fill="#ffffff" d="M 0.238281 200.871094 L 0.238281 0.738281 L 42.199219 0.738281 L 42.199219 200.871094 Z M 0.238281 200.871094 " fill-opacity="1" fill-rule="nonzero"/></g></g></g></g><g clip-path="url(#606457d77b)"><g transform="matrix(1, 0, 0, 1, 361, 225)"><g clip-path="url(#30e7824a04)"><g clip-path="url(#d1af77a935)"><path fill="#ffffff" d="M 159.597656 42.339844 L 0.113281 42.339844 L 0.113281 0.378906 L 159.597656 0.378906 Z M 159.597656 42.339844 " fill-opacity="1" fill-rule="nonzero"/></g></g></g></g><g clip-path="url(#a856afd400)"><g transform="matrix(1, 0, 0, 1, 0.000000000000000056, -0.00000000000000245)"><g clip-path="url(#cfb91ee61c)"><g fill="#22c55e" fill-opacity="1"><g transform="translate(0.226682, 52.858628)"><g><path d="M 2.78125 0 L 2.78125 -42.109375 L 18.984375 -42.109375 C 22.640625 -42.109375 25.90625 -41.75 28.78125 -41.03125 C 31.65625 -40.320312 33.921875 -39.019531 35.578125 -37.125 C 37.242188 -35.238281 38.078125 -32.550781 38.078125 -29.0625 C 38.078125 -27.46875 37.78125 -25.878906 37.1875 -24.296875 C 36.601562 -22.722656 35.585938 -21.285156 34.140625 -19.984375 C 32.691406 -18.679688 30.625 -17.671875 27.9375 -16.953125 L 40.15625 0 L 28.625 0 L 17.21875 -15.890625 L 12.734375 -15.890625 L 12.734375 0 Z M 12.734375 -24.203125 L 19.296875 -24.203125 C 21.648438 -24.203125 23.613281 -24.503906 25.1875 -25.109375 C 26.757812 -25.722656 27.546875 -27 27.546875 -28.9375 C 27.546875 -30.914062 26.757812 -32.207031 25.1875 -32.8125 C 23.613281 -33.425781 21.648438 -33.734375 19.296875 -33.734375 L 12.734375 -33.734375 Z M 12.734375 -24.203125 "/></g></g></g><g fill="#22c55e" fill-opacity="1"><g transform="translate(47.571248, 52.858628)"><g><path d="M 2.78125 0 L 2.78125 -42.109375 L 35.1875 -42.109375 L 35.1875 -33.359375 L 12.734375 -33.359375 L 12.734375 -26.03125 L 26.421875 -26.03125 L 26.421875 -17.28125 L 12.734375 -17.28125 L 12.734375 -8.765625 L 35.1875 -8.765625 L 35.1875 0 Z M 2.78125 0 "/></g></g></g><g fill="#22c55e" fill-opacity="1"><g transform="translate(90.250809, 52.858628)"><g><path d="M 2.78125 0 L 2.78125 -42.109375 L 12.734375 -42.109375 L 12.734375 -8.765625 L 32.90625 -8.765625 L 32.90625 0 Z M 2.78125 0 "/></g></g></g><g fill="#22c55e" fill-opacity="1"><g transform="translate(130.219632, 52.858628)"><g><path d="M 0.3125 0 L 16.265625 -42.109375 L 27.234375 -42.109375 L 43.1875 0 L 32.34375 0 L 29.828125 -7.5 L 13.6875 -7.5 L 11.15625 0 Z M 16.390625 -15.578125 L 27.109375 -15.578125 L 21.6875 -31.59375 Z M 16.390625 -15.578125 "/></g></g></g></g></g></g><g transform="matrix(1, 0, 0, 1, 172, -0.00000000000000245)"><g clip-path="url(#5120205287)"><g fill="#22c55e" fill-opacity="1"><g transform="translate(1.15656, 53.384967)"><g><path d="M 16.703125 0 L 16.703125 -16.390625 L 0.625 -42.109375 L 12.234375 -42.109375 L 21.625 -25.90625 L 31.015625 -42.109375 L 42.6875 -42.109375 L 26.609375 -16.390625 L 26.609375 0 Z M 16.703125 0 "/></g></g></g></g></g></svg>