<svg xmlns="http://www.w3.org/2000/svg" xmlns:xlink="http://www.w3.org/1999/xlink" width="250" zoomAndPan="magnify" viewBox="300 420 900 600" height="166" preserveAspectRatio="xMidYMid meet" version="1.0"><defs><g/><clipPath id="322ad86fd2"><rect x="0" width="306" y="0" height="372"/></clipPath><clipPath id="2f4eb38b59"><rect x="0" width="306" y="0" height="372"/></clipPath><clipPath id="f4d45ad9fc"><rect x="0" width="601" y="0" height="372"/></clipPath><clipPath id="77bb31b6ef"><rect x="0" width="182" y="0" height="51"/></clipPath><clipPath id="e814735e95"><rect x="0" width="409" y="0" height="51"/></clipPath></defs><g transform="matrix(1, 0, 0, 1, 326, 687)"><g clip-path="url(#322ad86fd2)"><g fill="#000000" fill-opacity="1"><g transform="translate(1.916416, 300.188496)"><g><path d="M 74.671875 0 L 74.671875 -49.78125 L 273.765625 -49.78125 L 273.765625 0 Z M 24.890625 -49.78125 L 24.890625 -248.890625 L 74.671875 -248.890625 L 74.671875 -49.78125 Z M 24.890625 -49.78125 "/></g></g></g></g></g><g transform="matrix(1, 0, 0, 1, 868, 441)"><g clip-path="url(#2f4eb38b59)"><g fill="#000000" fill-opacity="1"><g transform="translate(304.078121, 71.803835)"><g><path d="M -74.671875 0 L -74.671875 49.78125 L -273.765625 49.78125 L -273.765625 0 Z M -24.890625 49.78125 L -24.890625 248.890625 L -74.671875 248.890625 L -74.671875 49.78125 Z M -24.890625 49.78125 "/></g></g></g></g></g><g transform="matrix(1, 0, 0, 1, 452, 579)"><g clip-path="url(#f4d45ad9fc)"><g fill="#000000" fill-opacity="1"><g transform="translate(0.642287, 300.286356)"><g><path d="M 224 0 L 224 -49.78125 L 74.671875 -49.78125 L 74.671875 -99.546875 L 224 -99.546875 L 224 -248.890625 L 273.765625 -248.890625 L 273.765625 0 Z M 24.890625 -99.546875 L 24.890625 -248.890625 L 74.671875 -248.890625 L 74.671875 -99.546875 Z M 24.890625 -99.546875 "/></g></g></g><g fill="#000000" fill-opacity="1"><g transform="translate(299.291778, 300.286356)"><g><path d="M 224 0 L 224 -49.78125 L 74.671875 -49.78125 L 74.671875 -99.546875 L 224 -99.546875 L 224 -248.890625 L 273.765625 -248.890625 L 273.765625 0 Z M 24.890625 -99.546875 L 24.890625 -248.890625 L 74.671875 -248.890625 L 74.671875 -99.546875 Z M 24.890625 -99.546875 "/></g></g></g></g></g><g transform="matrix(1, 0, 0, 1, 352, 505)"><g clip-path="url(#77bb31b6ef)"><g fill="#000000" fill-opacity="1"><g transform="translate(0.901165, 40.62298)"><g><path d="M 2.5 0 L 2.5 -28.734375 L 13.84375 -28.734375 C 17.101562 -28.734375 19.632812 -27.878906 21.4375 -26.171875 C 23.238281 -24.472656 24.140625 -22.195312 24.140625 -19.34375 C 24.140625 -17.382812 23.703125 -15.707031 22.828125 -14.3125 C 21.953125 -12.914062 20.695312 -11.867188 19.0625 -11.171875 L 25.15625 0 L 18.453125 0 L 13.015625 -10.1875 L 8.578125 -10.1875 L 8.578125 0 Z M 8.578125 -15.078125 L 12.703125 -15.078125 C 16.148438 -15.078125 17.875 -16.5 17.875 -19.34375 C 17.875 -22.289062 16.140625 -23.765625 12.671875 -23.765625 L 8.578125 -23.765625 Z M 8.578125 -15.078125 "/></g></g></g><g fill="#000000" fill-opacity="1"><g transform="translate(26.117298, 40.62298)"><g><path d="M 2.5 0 L 2.5 -28.734375 L 21.859375 -28.734375 L 21.859375 -23.734375 L 8.578125 -23.734375 L 8.578125 -16.875 L 20.859375 -16.875 L 20.859375 -11.875 L 8.578125 -11.875 L 8.578125 -5.015625 L 21.921875 -5.015625 L 21.921875 0 Z M 2.5 0 "/></g></g></g><g fill="#000000" fill-opacity="1"><g transform="translate(49.607737, 40.62298)"><g><path d="M 2.5 0 L 2.5 -28.734375 L 8.578125 -28.734375 L 8.578125 -5.015625 L 20.890625 -5.015625 L 20.890625 0 Z M 2.5 0 "/></g></g></g><g fill="#000000" fill-opacity="1"><g transform="translate(71.316365, 40.62298)"><g><path d="M 7.453125 0 L 0.9375 0 L 10.859375 -28.734375 L 18.6875 -28.734375 L 28.59375 0 L 22.09375 0 L 19.953125 -6.546875 L 9.578125 -6.546875 Z M 11.125 -11.296875 L 18.421875 -11.296875 L 14.890625 -22.171875 L 14.671875 -22.171875 Z M 11.125 -11.296875 "/></g></g></g><g fill="#000000" fill-opacity="1"><g transform="translate(100.152185, 40.62298)"><g><path d="M 0.8125 -28.734375 L 7.625 -28.734375 L 14.171875 -16.359375 L 14.453125 -16.359375 L 21 -28.734375 L 27.8125 -28.734375 L 17.328125 -10.15625 L 17.328125 0 L 11.296875 0 L 11.296875 -10.15625 Z M 0.8125 -28.734375 "/></g></g></g><g fill="#000000" fill-opacity="1"><g transform="translate(128.062058, 40.62298)"><g><path d="M 1.890625 -5.046875 L 1.890625 -9.84375 L 13.890625 -28.734375 L 21.5 -28.734375 L 21.5 -9.921875 L 25.0625 -9.921875 L 25.0625 -5.046875 L 21.5 -5.046875 L 21.5 0 L 15.6875 0 L 15.6875 -5.046875 Z M 15.796875 -9.921875 L 15.796875 -22.109375 L 15.578125 -22.109375 L 8.015625 -10.140625 L 8.015625 -9.921875 Z M 15.796875 -9.921875 "/></g></g></g><g fill="#000000" fill-opacity="1"><g transform="translate(154.134005, 40.62298)"><g><path d="M 1.890625 -5.046875 L 1.890625 -9.84375 L 13.890625 -28.734375 L 21.5 -28.734375 L 21.5 -9.921875 L 25.0625 -9.921875 L 25.0625 -5.046875 L 21.5 -5.046875 L 21.5 0 L 15.6875 0 L 15.6875 -5.046875 Z M 15.796875 -9.921875 L 15.796875 -22.109375 L 15.578125 -22.109375 L 8.015625 -10.140625 L 8.015625 -9.921875 Z M 15.796875 -9.921875 "/></g></g></g></g></g><g transform="matrix(1, 0, 0, 1, 743, 949)"><g clip-path="url(#e814735e95)"><g fill="#000000" fill-opacity="1"><g transform="translate(0.276454, 40.53886)"><g><path d="M 18.09375 -20.46875 C 17.976562 -21.601562 17.492188 -22.484375 16.640625 -23.109375 C 15.785156 -23.734375 14.628906 -24.046875 13.171875 -24.046875 C 11.691406 -24.046875 10.550781 -23.742188 9.75 -23.140625 C 8.957031 -22.535156 8.5625 -21.769531 8.5625 -20.84375 C 8.539062 -19.8125 8.976562 -19.03125 9.875 -18.5 C 10.78125 -17.96875 11.859375 -17.5625 13.109375 -17.28125 L 15.6875 -16.65625 C 17.351562 -16.28125 18.832031 -15.738281 20.125 -15.03125 C 21.425781 -14.320312 22.445312 -13.40625 23.1875 -12.28125 C 23.925781 -11.164062 24.296875 -9.804688 24.296875 -8.203125 C 24.296875 -5.578125 23.3125 -3.484375 21.34375 -1.921875 C 19.382812 -0.367188 16.65625 0.40625 13.15625 0.40625 C 9.664062 0.40625 6.878906 -0.382812 4.796875 -1.96875 C 2.722656 -3.5625 1.648438 -5.910156 1.578125 -9.015625 L 7.453125 -9.015625 C 7.554688 -7.578125 8.125 -6.492188 9.15625 -5.765625 C 10.1875 -5.046875 11.492188 -4.6875 13.078125 -4.6875 C 14.617188 -4.6875 15.847656 -5.015625 16.765625 -5.671875 C 17.691406 -6.328125 18.160156 -7.175781 18.171875 -8.21875 C 18.160156 -9.195312 17.734375 -9.945312 16.890625 -10.46875 C 16.046875 -10.988281 14.84375 -11.4375 13.28125 -11.8125 L 10.15625 -12.59375 C 7.738281 -13.175781 5.828125 -14.097656 4.421875 -15.359375 C 3.015625 -16.628906 2.316406 -18.320312 2.328125 -20.4375 C 2.316406 -22.175781 2.78125 -23.695312 3.71875 -25 C 4.664062 -26.300781 5.960938 -27.3125 7.609375 -28.03125 C 9.253906 -28.757812 11.125 -29.125 13.21875 -29.125 C 15.351562 -29.125 17.21875 -28.757812 18.8125 -28.03125 C 20.40625 -27.300781 21.644531 -26.285156 22.53125 -24.984375 C 23.425781 -23.691406 23.882812 -22.1875 23.90625 -20.46875 Z M 18.09375 -20.46875 "/></g></g></g><g fill="#000000" fill-opacity="1"><g transform="translate(25.43647, 40.53886)"><g><path d="M 8.578125 -28.734375 L 8.578125 0 L 2.5 0 L 2.5 -28.734375 Z M 8.578125 -28.734375 "/></g></g></g><g fill="#000000" fill-opacity="1"><g transform="translate(35.808971, 40.53886)"><g><path d="M 21.546875 -19.453125 C 21.171875 -20.796875 20.460938 -21.847656 19.421875 -22.609375 C 18.390625 -23.367188 17.09375 -23.75 15.53125 -23.75 C 13.332031 -23.75 11.550781 -22.9375 10.1875 -21.3125 C 8.832031 -19.695312 8.15625 -17.390625 8.15625 -14.390625 C 8.15625 -11.390625 8.820312 -9.070312 10.15625 -7.4375 C 11.5 -5.800781 13.3125 -4.984375 15.59375 -4.984375 C 17.613281 -4.984375 19.203125 -5.507812 20.359375 -6.5625 C 21.515625 -7.613281 22.109375 -9.03125 22.140625 -10.8125 L 15.96875 -10.8125 L 15.96875 -15.375 L 28 -15.375 L 28 -11.765625 C 28 -9.242188 27.460938 -7.070312 26.390625 -5.25 C 25.328125 -3.4375 23.863281 -2.039062 22 -1.0625 C 20.132812 -0.09375 17.988281 0.390625 15.5625 0.390625 C 12.863281 0.390625 10.492188 -0.203125 8.453125 -1.390625 C 6.421875 -2.585938 4.835938 -4.285156 3.703125 -6.484375 C 2.566406 -8.691406 2 -11.3125 2 -14.34375 C 2 -17.445312 2.59375 -20.101562 3.78125 -22.3125 C 4.96875 -24.519531 6.570312 -26.207031 8.59375 -27.375 C 10.625 -28.539062 12.90625 -29.125 15.4375 -29.125 C 17.601562 -29.125 19.566406 -28.710938 21.328125 -27.890625 C 23.085938 -27.066406 24.523438 -25.925781 25.640625 -24.46875 C 26.765625 -23.019531 27.460938 -21.347656 27.734375 -19.453125 Z M 21.546875 -19.453125 "/></g></g></g><g fill="#000000" fill-opacity="1"><g transform="translate(65.14989, 40.53886)"><g><path d="M 26.53125 -28.734375 L 26.53125 0 L 21.28125 0 L 8.78125 -18.09375 L 8.578125 -18.09375 L 8.578125 0 L 2.5 0 L 2.5 -28.734375 L 7.828125 -28.734375 L 20.234375 -10.671875 L 20.484375 -10.671875 L 20.484375 -28.734375 Z M 26.53125 -28.734375 "/></g></g></g><g fill="#000000" fill-opacity="1"><g transform="translate(93.480662, 40.53886)"><g><path d="M 7.453125 0 L 0.9375 0 L 10.859375 -28.734375 L 18.6875 -28.734375 L 28.59375 0 L 22.09375 0 L 19.953125 -6.546875 L 9.578125 -6.546875 Z M 11.125 -11.296875 L 18.421875 -11.296875 L 14.890625 -22.171875 L 14.671875 -22.171875 Z M 11.125 -11.296875 "/></g></g></g><g fill="#000000" fill-opacity="1"><g transform="translate(122.316481, 40.53886)"><g><path d="M 2.5 0 L 2.5 -28.734375 L 8.578125 -28.734375 L 8.578125 -5.015625 L 20.890625 -5.015625 L 20.890625 0 Z M 2.5 0 "/></g></g></g><g fill="#000000" fill-opacity="1"><g transform="translate(144.02511, 40.53886)"><g/></g></g><g fill="#000000" fill-opacity="1"><g transform="translate(152.475484, 40.53886)"><g><path d="M 20.71875 0.53125 L 17.453125 -2.703125 L 24.96875 -10.203125 L 4.9375 -10.203125 L 4.9375 -14.9375 L 24.96875 -14.9375 L 17.453125 -22.453125 L 20.71875 -25.671875 L 33.8125 -12.578125 Z M 20.71875 0.53125 "/></g></g></g><g fill="#000000" fill-opacity="1"><g transform="translate(189.476726, 40.53886)"><g/></g></g><g fill="#000000" fill-opacity="1"><g transform="translate(197.9271, 40.53886)"><g><path d="M 2.5 0 L 2.5 -28.734375 L 13.84375 -28.734375 C 17.101562 -28.734375 19.632812 -27.878906 21.4375 -26.171875 C 23.238281 -24.472656 24.140625 -22.195312 24.140625 -19.34375 C 24.140625 -17.382812 23.703125 -15.707031 22.828125 -14.3125 C 21.953125 -12.914062 20.695312 -11.867188 19.0625 -11.171875 L 25.15625 0 L 18.453125 0 L 13.015625 -10.1875 L 8.578125 -10.1875 L 8.578125 0 Z M 8.578125 -15.078125 L 12.703125 -15.078125 C 16.148438 -15.078125 17.875 -16.5 17.875 -19.34375 C 17.875 -22.289062 16.140625 -23.765625 12.671875 -23.765625 L 8.578125 -23.765625 Z M 8.578125 -15.078125 "/></g></g></g><g fill="#000000" fill-opacity="1"><g transform="translate(223.143233, 40.53886)"><g><path d="M 2.5 0 L 2.5 -28.734375 L 21.859375 -28.734375 L 21.859375 -23.734375 L 8.578125 -23.734375 L 8.578125 -16.875 L 20.859375 -16.875 L 20.859375 -11.875 L 8.578125 -11.875 L 8.578125 -5.015625 L 21.921875 -5.015625 L 21.921875 0 Z M 2.5 0 "/></g></g></g><g fill="#000000" fill-opacity="1"><g transform="translate(246.633672, 40.53886)"><g><path d="M 18.09375 -20.46875 C 17.976562 -21.601562 17.492188 -22.484375 16.640625 -23.109375 C 15.785156 -23.734375 14.628906 -24.046875 13.171875 -24.046875 C 11.691406 -24.046875 10.550781 -23.742188 9.75 -23.140625 C 8.957031 -22.535156 8.5625 -21.769531 8.5625 -20.84375 C 8.539062 -19.8125 8.976562 -19.03125 9.875 -18.5 C 10.78125 -17.96875 11.859375 -17.5625 13.109375 -17.28125 L 15.6875 -16.65625 C 17.351562 -16.28125 18.832031 -15.738281 20.125 -15.03125 C 21.425781 -14.320312 22.445312 -13.40625 23.1875 -12.28125 C 23.925781 -11.164062 24.296875 -9.804688 24.296875 -8.203125 C 24.296875 -5.578125 23.3125 -3.484375 21.34375 -1.921875 C 19.382812 -0.367188 16.65625 0.40625 13.15625 0.40625 C 9.664062 0.40625 6.878906 -0.382812 4.796875 -1.96875 C 2.722656 -3.5625 1.648438 -5.910156 1.578125 -9.015625 L 7.453125 -9.015625 C 7.554688 -7.578125 8.125 -6.492188 9.15625 -5.765625 C 10.1875 -5.046875 11.492188 -4.6875 13.078125 -4.6875 C 14.617188 -4.6875 15.847656 -5.015625 16.765625 -5.671875 C 17.691406 -6.328125 18.160156 -7.175781 18.171875 -8.21875 C 18.160156 -9.195312 17.734375 -9.945312 16.890625 -10.46875 C 16.046875 -10.988281 14.84375 -11.4375 13.28125 -11.8125 L 10.15625 -12.59375 C 7.738281 -13.175781 5.828125 -14.097656 4.421875 -15.359375 C 3.015625 -16.628906 2.316406 -18.320312 2.328125 -20.4375 C 2.316406 -22.175781 2.78125 -23.695312 3.71875 -25 C 4.664062 -26.300781 5.960938 -27.3125 7.609375 -28.03125 C 9.253906 -28.757812 11.125 -29.125 13.21875 -29.125 C 15.351562 -29.125 17.21875 -28.757812 18.8125 -28.03125 C 20.40625 -27.300781 21.644531 -26.285156 22.53125 -24.984375 C 23.425781 -23.691406 23.882812 -22.1875 23.90625 -20.46875 Z M 18.09375 -20.46875 "/></g></g></g><g fill="#000000" fill-opacity="1"><g transform="translate(271.793688, 40.53886)"><g><path d="M 28.90625 -14.375 C 28.90625 -11.238281 28.3125 -8.570312 27.125 -6.375 C 25.945312 -4.175781 24.34375 -2.5 22.3125 -1.34375 C 20.28125 -0.1875 17.992188 0.390625 15.453125 0.390625 C 12.898438 0.390625 10.609375 -0.1875 8.578125 -1.34375 C 6.546875 -2.507812 4.941406 -4.191406 3.765625 -6.390625 C 2.585938 -8.597656 2 -11.257812 2 -14.375 C 2 -17.5 2.585938 -20.160156 3.765625 -22.359375 C 4.941406 -24.566406 6.546875 -26.242188 8.578125 -27.390625 C 10.609375 -28.546875 12.898438 -29.125 15.453125 -29.125 C 17.992188 -29.125 20.28125 -28.546875 22.3125 -27.390625 C 24.34375 -26.242188 25.945312 -24.566406 27.125 -22.359375 C 28.3125 -20.160156 28.90625 -17.5 28.90625 -14.375 Z M 22.75 -14.375 C 22.75 -17.414062 22.082031 -19.738281 20.75 -21.34375 C 19.425781 -22.945312 17.660156 -23.75 15.453125 -23.75 C 13.242188 -23.75 11.472656 -22.945312 10.140625 -21.34375 C 8.816406 -19.738281 8.15625 -17.414062 8.15625 -14.375 C 8.15625 -11.332031 8.816406 -9.003906 10.140625 -7.390625 C 11.472656 -5.785156 13.242188 -4.984375 15.453125 -4.984375 C 17.660156 -4.984375 19.425781 -5.785156 20.75 -7.390625 C 22.082031 -9.003906 22.75 -11.332031 22.75 -14.375 Z M 22.75 -14.375 "/></g></g></g><g fill="#000000" fill-opacity="1"><g transform="translate(301.976404, 40.53886)"><g><path d="M 2.5 0 L 2.5 -28.734375 L 8.578125 -28.734375 L 8.578125 -5.015625 L 20.890625 -5.015625 L 20.890625 0 Z M 2.5 0 "/></g></g></g><g fill="#000000" fill-opacity="1"><g transform="translate(323.685032, 40.53886)"><g><path d="M 7.6875 -28.734375 L 14.640625 -6.90625 L 14.90625 -6.90625 L 21.859375 -28.734375 L 28.59375 -28.734375 L 18.6875 0 L 10.859375 0 L 0.9375 -28.734375 Z M 7.6875 -28.734375 "/></g></g></g><g fill="#000000" fill-opacity="1"><g transform="translate(352.520852, 40.53886)"><g><path d="M 2.5 0 L 2.5 -28.734375 L 21.859375 -28.734375 L 21.859375 -23.734375 L 8.578125 -23.734375 L 8.578125 -16.875 L 20.859375 -16.875 L 20.859375 -11.875 L 8.578125 -11.875 L 8.578125 -5.015625 L 21.921875 -5.015625 L 21.921875 0 Z M 2.5 0 "/></g></g></g><g fill="#000000" fill-opacity="1"><g transform="translate(376.011291, 40.53886)"><g><path d="M 12.6875 0 L 2.5 0 L 2.5 -28.734375 L 12.765625 -28.734375 C 15.660156 -28.734375 18.148438 -28.160156 20.234375 -27.015625 C 22.328125 -25.867188 23.9375 -24.222656 25.0625 -22.078125 C 26.1875 -19.941406 26.75 -17.378906 26.75 -14.390625 C 26.75 -11.398438 26.179688 -8.828125 25.046875 -6.671875 C 23.921875 -4.523438 22.304688 -2.875 20.203125 -1.71875 C 18.109375 -0.570312 15.601562 0 12.6875 0 Z M 8.578125 -5.203125 L 12.4375 -5.203125 C 15.132812 -5.203125 17.179688 -5.929688 18.578125 -7.390625 C 19.984375 -8.847656 20.6875 -11.179688 20.6875 -14.390625 C 20.6875 -17.585938 19.984375 -19.910156 18.578125 -21.359375 C 17.179688 -22.804688 15.140625 -23.53125 12.453125 -23.53125 L 8.578125 -23.53125 Z M 8.578125 -5.203125 "/></g></g></g></g></g></svg>