<svg xmlns="http://www.w3.org/2000/svg" xmlns:xlink="http://www.w3.org/1999/xlink" width="2390" zoomAndPan="magnify" viewBox="0 0 1792.5 1004.999992" height="1340" preserveAspectRatio="xMidYMid meet" version="1.0"><defs><g/><clipPath id="b49a2da7ae"><path d="M 12 371 L 649 371 L 649 1004.859375 L 12 1004.859375 Z M 12 371 " clip-rule="nonzero"/></clipPath><clipPath id="c04c4b6028"><rect x="0" width="637" y="0" height="634"/></clipPath><clipPath id="43edc99f58"><path d="M 1144 0.140625 L 1780 0.140625 L 1780 634 L 1144 634 Z M 1144 0.140625 " clip-rule="nonzero"/></clipPath><clipPath id="c8015b5229"><rect x="0" width="636" y="0" height="634"/></clipPath><clipPath id="c9e52ca092"><rect x="0" width="1253" y="0" height="776"/></clipPath><clipPath id="9db4ae3888"><path d="M 68 0.140625 L 443 0.140625 L 443 97 L 68 97 Z M 68 0.140625 " clip-rule="nonzero"/></clipPath><clipPath id="63d983f5fe"><rect x="0" width="375" y="0" height="97"/></clipPath><clipPath id="3d515d28cf"><path d="M 881 919 L 1734 919 L 1734 1004.859375 L 881 1004.859375 Z M 881 919 " clip-rule="nonzero"/></clipPath><clipPath id="3c0f951066"><rect x="0" width="853" y="0" height="86"/></clipPath></defs><g clip-path="url(#b49a2da7ae)"><g transform="matrix(1, 0, 0, 1, 12, 371)"><g clip-path="url(#c04c4b6028)"><g fill="#ffffff" fill-opacity="1"><g transform="translate(4.066503, 625.976081)"><g><path d="M 155.65625 0 L 155.65625 -103.765625 L 570.75 -103.765625 L 570.75 0 Z M 51.890625 -103.765625 L 51.890625 -518.84375 L 155.65625 -518.84375 L 155.65625 -103.765625 Z M 51.890625 -103.765625 "/></g></g></g></g></g></g><g clip-path="url(#43edc99f58)"><g transform="matrix(1, 0, 0, 1, 1144, 0.000000000000167311)"><g clip-path="url(#c8015b5229)"><g fill="#ffffff" fill-opacity="1"><g transform="translate(631.929958, 8.013736)"><g><path d="M -155.65625 0 L -155.65625 103.765625 L -570.75 103.765625 L -570.75 0 Z M -51.890625 103.765625 L -51.890625 518.84375 L -155.65625 518.84375 L -155.65625 103.765625 Z M -51.890625 103.765625 "/></g></g></g></g></g></g><g transform="matrix(1, 0, 0, 1, 275, 146)"><g clip-path="url(#c9e52ca092)"><g fill="#ffffff" fill-opacity="1"><g transform="translate(1.087177, 626.028525)"><g><path d="M 466.984375 0 L 466.984375 -103.765625 L 155.65625 -103.765625 L 155.65625 -207.546875 L 466.984375 -207.546875 L 466.984375 -518.84375 L 570.75 -518.84375 L 570.75 0 Z M 51.890625 -207.546875 L 51.890625 -518.84375 L 155.65625 -518.84375 L 155.65625 -207.546875 Z M 51.890625 -207.546875 "/></g></g></g><g fill="#ffffff" fill-opacity="1"><g transform="translate(623.693136, 626.028525)"><g><path d="M 466.984375 0 L 466.984375 -103.765625 L 155.65625 -103.765625 L 155.65625 -207.546875 L 466.984375 -207.546875 L 466.984375 -518.84375 L 570.75 -518.84375 L 570.75 0 Z M 51.890625 -207.546875 L 51.890625 -518.84375 L 155.65625 -518.84375 L 155.65625 -207.546875 Z M 51.890625 -207.546875 "/></g></g></g></g></g><g clip-path="url(#9db4ae3888)"><g transform="matrix(1, 0, 0, 1, 68, 0.000000000000167311)"><g clip-path="url(#63d983f5fe)"><g fill="#22c55e" fill-opacity="1"><g transform="translate(0.153123, 76.024631)"><g><path d="M 5.203125 0 L 5.203125 -59.890625 L 28.84375 -59.890625 C 35.644531 -59.890625 40.921875 -58.113281 44.671875 -54.5625 C 48.429688 -51.019531 50.3125 -46.273438 50.3125 -40.328125 C 50.3125 -36.234375 49.394531 -32.734375 47.5625 -29.828125 C 45.738281 -26.921875 43.125 -24.738281 39.71875 -23.28125 L 52.4375 0 L 38.453125 0 L 27.109375 -21.234375 L 17.875 -21.234375 L 17.875 0 Z M 17.875 -31.40625 L 26.46875 -31.40625 C 33.664062 -31.40625 37.265625 -34.378906 37.265625 -40.328125 C 37.265625 -46.472656 33.644531 -49.546875 26.40625 -49.546875 L 17.875 -49.546875 Z M 17.875 -31.40625 "/></g></g></g><g fill="#22c55e" fill-opacity="1"><g transform="translate(52.709703, 76.024631)"><g><path d="M 5.203125 0 L 5.203125 -59.890625 L 45.5625 -59.890625 L 45.5625 -49.453125 L 17.875 -49.453125 L 17.875 -35.1875 L 43.484375 -35.1875 L 43.484375 -24.75 L 17.875 -24.75 L 17.875 -10.4375 L 45.6875 -10.4375 L 45.6875 0 Z M 5.203125 0 "/></g></g></g><g fill="#22c55e" fill-opacity="1"><g transform="translate(101.66952, 76.024631)"><g><path d="M 5.203125 0 L 5.203125 -59.890625 L 17.875 -59.890625 L 17.875 -10.4375 L 43.546875 -10.4375 L 43.546875 0 Z M 5.203125 0 "/></g></g></g><g fill="#22c55e" fill-opacity="1"><g transform="translate(146.915607, 76.024631)"><g><path d="M 15.53125 0 L 1.953125 0 L 22.640625 -59.890625 L 38.953125 -59.890625 L 59.609375 0 L 46.03125 0 L 41.59375 -13.65625 L 19.96875 -13.65625 Z M 23.1875 -23.546875 L 38.40625 -23.546875 L 31.03125 -46.203125 L 30.5625 -46.203125 Z M 23.1875 -23.546875 "/></g></g></g><g fill="#22c55e" fill-opacity="1"><g transform="translate(207.016616, 76.024631)"><g><path d="M 1.703125 -59.890625 L 15.875 -59.890625 L 29.546875 -34.109375 L 30.125 -34.109375 L 43.78125 -59.890625 L 57.96875 -59.890625 L 36.125 -21.171875 L 36.125 0 L 23.546875 0 L 23.546875 -21.171875 Z M 1.703125 -59.890625 "/></g></g></g><g fill="#22c55e" fill-opacity="1"><g transform="translate(265.187656, 76.024631)"><g><path d="M 3.953125 -10.53125 L 3.953125 -20.5 L 28.953125 -59.890625 L 44.8125 -59.890625 L 44.8125 -20.671875 L 52.234375 -20.671875 L 52.234375 -10.53125 L 44.8125 -10.53125 L 44.8125 0 L 32.703125 0 L 32.703125 -10.53125 Z M 32.9375 -20.671875 L 32.9375 -46.09375 L 32.46875 -46.09375 L 16.703125 -21.140625 L 16.703125 -20.671875 Z M 32.9375 -20.671875 "/></g></g></g><g fill="#22c55e" fill-opacity="1"><g transform="translate(319.527997, 76.024631)"><g><path d="M 3.953125 -10.53125 L 3.953125 -20.5 L 28.953125 -59.890625 L 44.8125 -59.890625 L 44.8125 -20.671875 L 52.234375 -20.671875 L 52.234375 -10.53125 L 44.8125 -10.53125 L 44.8125 0 L 32.703125 0 L 32.703125 -10.53125 Z M 32.9375 -20.671875 L 32.9375 -46.09375 L 32.46875 -46.09375 L 16.703125 -21.140625 L 16.703125 -20.671875 Z M 32.9375 -20.671875 "/></g></g></g></g></g></g><g clip-path="url(#3d515d28cf)"><g transform="matrix(1, 0, 0, 1, 881, 919)"><g clip-path="url(#3c0f951066)"><g fill="#22c55e" fill-opacity="1"><g transform="translate(0.983396, 82.875916)"><g><path d="M 37.703125 -42.671875 C 37.460938 -45.023438 36.453125 -46.851562 34.671875 -48.15625 C 32.890625 -49.46875 30.488281 -50.125 27.46875 -50.125 C 24.363281 -50.125 21.984375 -49.488281 20.328125 -48.21875 C 18.671875 -46.957031 17.84375 -45.363281 17.84375 -43.4375 C 17.800781 -41.289062 18.71875 -39.664062 20.59375 -38.5625 C 22.476562 -37.457031 24.71875 -36.601562 27.3125 -36 L 32.703125 -34.71875 C 36.171875 -33.9375 39.253906 -32.800781 41.953125 -31.3125 C 44.648438 -29.832031 46.773438 -27.925781 48.328125 -25.59375 C 49.878906 -23.269531 50.65625 -20.441406 50.65625 -17.109375 C 50.632812 -11.628906 48.582031 -7.265625 44.5 -4.015625 C 40.414062 -0.773438 34.71875 0.84375 27.40625 0.84375 C 20.132812 0.84375 14.332031 -0.8125 10 -4.125 C 5.675781 -7.4375 3.4375 -12.332031 3.28125 -18.8125 L 15.53125 -18.8125 C 15.75 -15.800781 16.929688 -13.539062 19.078125 -12.03125 C 21.234375 -10.519531 23.960938 -9.765625 27.265625 -9.765625 C 30.472656 -9.765625 33.035156 -10.445312 34.953125 -11.8125 C 36.878906 -13.175781 37.851562 -14.953125 37.875 -17.140625 C 37.851562 -19.171875 36.960938 -20.726562 35.203125 -21.8125 C 33.453125 -22.90625 30.953125 -23.84375 27.703125 -24.625 L 21.171875 -26.265625 C 16.117188 -27.472656 12.128906 -29.390625 9.203125 -32.015625 C 6.285156 -34.648438 4.835938 -38.171875 4.859375 -42.578125 C 4.835938 -46.210938 5.804688 -49.390625 7.765625 -52.109375 C 9.722656 -54.828125 12.414062 -56.941406 15.84375 -58.453125 C 19.28125 -59.960938 23.179688 -60.71875 27.546875 -60.71875 C 31.992188 -60.71875 35.878906 -59.957031 39.203125 -58.4375 C 42.523438 -56.914062 45.113281 -54.800781 46.96875 -52.09375 C 48.820312 -49.382812 49.78125 -46.242188 49.84375 -42.671875 Z M 37.703125 -42.671875 "/></g></g></g><g fill="#22c55e" fill-opacity="1"><g transform="translate(53.435438, 82.875916)"><g><path d="M 17.875 -59.890625 L 17.875 0 L 5.203125 0 L 5.203125 -59.890625 Z M 17.875 -59.890625 "/></g></g></g><g fill="#22c55e" fill-opacity="1"><g transform="translate(75.059386, 82.875916)"><g><path d="M 44.921875 -40.53125 C 44.117188 -43.34375 42.640625 -45.539062 40.484375 -47.125 C 38.335938 -48.71875 35.632812 -49.515625 32.375 -49.515625 C 27.789062 -49.515625 24.082031 -47.820312 21.25 -44.4375 C 18.414062 -41.050781 17 -36.238281 17 -30 C 17 -23.75 18.390625 -18.914062 21.171875 -15.5 C 23.960938 -12.082031 27.738281 -10.375 32.5 -10.375 C 36.707031 -10.375 40.015625 -11.472656 42.421875 -13.671875 C 44.828125 -15.867188 46.070312 -18.816406 46.15625 -22.515625 L 33.28125 -22.515625 L 33.28125 -32.0625 L 58.34375 -32.0625 L 58.34375 -24.515625 C 58.34375 -19.265625 57.226562 -14.742188 55 -10.953125 C 52.78125 -7.160156 49.726562 -4.25 45.84375 -2.21875 C 41.957031 -0.195312 37.488281 0.8125 32.4375 0.8125 C 26.820312 0.8125 21.890625 -0.425781 17.640625 -2.90625 C 13.390625 -5.394531 10.078125 -8.9375 7.703125 -13.53125 C 5.335938 -18.125 4.15625 -23.578125 4.15625 -29.890625 C 4.15625 -36.359375 5.390625 -41.894531 7.859375 -46.5 C 10.335938 -51.101562 13.691406 -54.625 17.921875 -57.0625 C 22.160156 -59.5 26.910156 -60.71875 32.171875 -60.71875 C 36.691406 -60.71875 40.785156 -59.859375 44.453125 -58.140625 C 48.117188 -56.421875 51.117188 -54.046875 53.453125 -51.015625 C 55.796875 -47.984375 57.242188 -44.488281 57.796875 -40.53125 Z M 44.921875 -40.53125 "/></g></g></g><g fill="#22c55e" fill-opacity="1"><g transform="translate(136.227513, 82.875916)"><g><path d="M 55.3125 -59.890625 L 55.3125 0 L 44.375 0 L 18.3125 -37.703125 L 17.875 -37.703125 L 17.875 0 L 5.203125 0 L 5.203125 -59.890625 L 16.3125 -59.890625 L 42.171875 -22.234375 L 42.703125 -22.234375 L 42.703125 -59.890625 Z M 55.3125 -59.890625 "/></g></g></g><g fill="#22c55e" fill-opacity="1"><g transform="translate(195.289749, 82.875916)"><g><path d="M 15.53125 0 L 1.953125 0 L 22.640625 -59.890625 L 38.953125 -59.890625 L 59.609375 0 L 46.03125 0 L 41.59375 -13.65625 L 19.96875 -13.65625 Z M 23.1875 -23.546875 L 38.40625 -23.546875 L 31.03125 -46.203125 L 30.5625 -46.203125 Z M 23.1875 -23.546875 "/></g></g></g><g fill="#22c55e" fill-opacity="1"><g transform="translate(255.404879, 82.875916)"><g><path d="M 5.203125 0 L 5.203125 -59.890625 L 17.875 -59.890625 L 17.875 -10.4375 L 43.546875 -10.4375 L 43.546875 0 Z M 5.203125 0 "/></g></g></g><g fill="#22c55e" fill-opacity="1"><g transform="translate(300.661681, 82.875916)"><g/></g></g><g fill="#22c55e" fill-opacity="1"><g transform="translate(318.278498, 82.875916)"><g><path d="M 43.171875 1.109375 L 36.390625 -5.640625 L 52.03125 -21.265625 L 10.296875 -21.265625 L 10.296875 -31.140625 L 52.03125 -31.140625 L 36.390625 -46.796875 L 43.171875 -53.515625 L 70.484375 -26.203125 Z M 43.171875 1.109375 "/></g></g></g><g fill="#22c55e" fill-opacity="1"><g transform="translate(395.416392, 82.875916)"><g/></g></g><g fill="#22c55e" fill-opacity="1"><g transform="translate(413.033209, 82.875916)"><g><path d="M 5.203125 0 L 5.203125 -59.890625 L 28.84375 -59.890625 C 35.644531 -59.890625 40.921875 -58.113281 44.671875 -54.5625 C 48.429688 -51.019531 50.3125 -46.273438 50.3125 -40.328125 C 50.3125 -36.234375 49.394531 -32.734375 47.5625 -29.828125 C 45.738281 -26.921875 43.125 -24.738281 39.71875 -23.28125 L 52.4375 0 L 38.453125 0 L 27.109375 -21.234375 L 17.875 -21.234375 L 17.875 0 Z M 17.875 -31.40625 L 26.46875 -31.40625 C 33.664062 -31.40625 37.265625 -34.378906 37.265625 -40.328125 C 37.265625 -46.472656 33.644531 -49.546875 26.40625 -49.546875 L 17.875 -49.546875 Z M 17.875 -31.40625 "/></g></g></g><g fill="#22c55e" fill-opacity="1"><g transform="translate(465.602239, 82.875916)"><g><path d="M 5.203125 0 L 5.203125 -59.890625 L 45.5625 -59.890625 L 45.5625 -49.453125 L 17.875 -49.453125 L 17.875 -35.1875 L 43.484375 -35.1875 L 43.484375 -24.75 L 17.875 -24.75 L 17.875 -10.4375 L 45.6875 -10.4375 L 45.6875 0 Z M 5.203125 0 "/></g></g></g><g fill="#22c55e" fill-opacity="1"><g transform="translate(514.57365, 82.875916)"><g><path d="M 37.703125 -42.671875 C 37.460938 -45.023438 36.453125 -46.851562 34.671875 -48.15625 C 32.890625 -49.46875 30.488281 -50.125 27.46875 -50.125 C 24.363281 -50.125 21.984375 -49.488281 20.328125 -48.21875 C 18.671875 -46.957031 17.84375 -45.363281 17.84375 -43.4375 C 17.800781 -41.289062 18.71875 -39.664062 20.59375 -38.5625 C 22.476562 -37.457031 24.71875 -36.601562 27.3125 -36 L 32.703125 -34.71875 C 36.171875 -33.9375 39.253906 -32.800781 41.953125 -31.3125 C 44.648438 -29.832031 46.773438 -27.925781 48.328125 -25.59375 C 49.878906 -23.269531 50.65625 -20.441406 50.65625 -17.109375 C 50.632812 -11.628906 48.582031 -7.265625 44.5 -4.015625 C 40.414062 -0.773438 34.71875 0.84375 27.40625 0.84375 C 20.132812 0.84375 14.332031 -0.8125 10 -4.125 C 5.675781 -7.4375 3.4375 -12.332031 3.28125 -18.8125 L 15.53125 -18.8125 C 15.75 -15.800781 16.929688 -13.539062 19.078125 -12.03125 C 21.234375 -10.519531 23.960938 -9.765625 27.265625 -9.765625 C 30.472656 -9.765625 33.035156 -10.445312 34.953125 -11.8125 C 36.878906 -13.175781 37.851562 -14.953125 37.875 -17.140625 C 37.851562 -19.171875 36.960938 -20.726562 35.203125 -21.8125 C 33.453125 -22.90625 30.953125 -23.84375 27.703125 -24.625 L 21.171875 -26.265625 C 16.117188 -27.472656 12.128906 -29.390625 9.203125 -32.015625 C 6.285156 -34.648438 4.835938 -38.171875 4.859375 -42.578125 C 4.835938 -46.210938 5.804688 -49.390625 7.765625 -52.109375 C 9.722656 -54.828125 12.414062 -56.941406 15.84375 -58.453125 C 19.28125 -59.960938 23.179688 -60.71875 27.546875 -60.71875 C 31.992188 -60.71875 35.878906 -59.957031 39.203125 -58.4375 C 42.523438 -56.914062 45.113281 -54.800781 46.96875 -52.09375 C 48.820312 -49.382812 49.78125 -46.242188 49.84375 -42.671875 Z M 37.703125 -42.671875 "/></g></g></g><g fill="#22c55e" fill-opacity="1"><g transform="translate(567.025692, 82.875916)"><g><path d="M 60.25 -29.953125 C 60.25 -23.421875 59.015625 -17.863281 56.546875 -13.28125 C 54.078125 -8.695312 50.726562 -5.203125 46.5 -2.796875 C 42.269531 -0.390625 37.503906 0.8125 32.203125 0.8125 C 26.878906 0.8125 22.097656 -0.394531 17.859375 -2.8125 C 13.628906 -5.226562 10.285156 -8.726562 7.828125 -13.3125 C 5.378906 -17.90625 4.15625 -23.453125 4.15625 -29.953125 C 4.15625 -36.484375 5.378906 -42.039062 7.828125 -46.625 C 10.285156 -51.207031 13.628906 -54.703125 17.859375 -57.109375 C 22.097656 -59.515625 26.878906 -60.71875 32.203125 -60.71875 C 37.503906 -60.71875 42.269531 -59.515625 46.5 -57.109375 C 50.726562 -54.703125 54.078125 -51.207031 56.546875 -46.625 C 59.015625 -42.039062 60.25 -36.484375 60.25 -29.953125 Z M 47.40625 -29.953125 C 47.40625 -36.304688 46.019531 -41.15625 43.25 -44.5 C 40.488281 -47.84375 36.804688 -49.515625 32.203125 -49.515625 C 27.597656 -49.515625 23.910156 -47.84375 21.140625 -44.5 C 18.378906 -41.15625 17 -36.304688 17 -29.953125 C 17 -23.609375 18.378906 -18.757812 21.140625 -15.40625 C 23.910156 -12.050781 27.597656 -10.375 32.203125 -10.375 C 36.804688 -10.375 40.488281 -12.050781 43.25 -15.40625 C 46.019531 -18.757812 47.40625 -23.609375 47.40625 -29.953125 Z M 47.40625 -29.953125 "/></g></g></g><g fill="#22c55e" fill-opacity="1"><g transform="translate(629.948745, 82.875916)"><g><path d="M 5.203125 0 L 5.203125 -59.890625 L 17.875 -59.890625 L 17.875 -10.4375 L 43.546875 -10.4375 L 43.546875 0 Z M 5.203125 0 "/></g></g></g><g fill="#22c55e" fill-opacity="1"><g transform="translate(675.205548, 82.875916)"><g><path d="M 16.03125 -59.890625 L 30.5 -14.390625 L 31.0625 -14.390625 L 45.5625 -59.890625 L 59.609375 -59.890625 L 38.953125 0 L 22.640625 0 L 1.953125 -59.890625 Z M 16.03125 -59.890625 "/></g></g></g><g fill="#22c55e" fill-opacity="1"><g transform="translate(735.320677, 82.875916)"><g><path d="M 5.203125 0 L 5.203125 -59.890625 L 45.5625 -59.890625 L 45.5625 -49.453125 L 17.875 -49.453125 L 17.875 -35.1875 L 43.484375 -35.1875 L 43.484375 -24.75 L 17.875 -24.75 L 17.875 -10.4375 L 45.6875 -10.4375 L 45.6875 0 Z M 5.203125 0 "/></g></g></g><g fill="#22c55e" fill-opacity="1"><g transform="translate(784.292087, 82.875916)"><g><path d="M 26.4375 0 L 5.203125 0 L 5.203125 -59.890625 L 26.609375 -59.890625 C 32.640625 -59.890625 37.832031 -58.695312 42.1875 -56.3125 C 46.539062 -53.925781 49.890625 -50.5 52.234375 -46.03125 C 54.578125 -41.570312 55.75 -36.226562 55.75 -30 C 55.75 -23.757812 54.570312 -18.394531 52.21875 -13.90625 C 49.875 -9.425781 46.507812 -5.988281 42.125 -3.59375 C 37.75 -1.195312 32.519531 0 26.4375 0 Z M 17.875 -10.84375 L 25.90625 -10.84375 C 31.539062 -10.84375 35.816406 -12.363281 38.734375 -15.40625 C 41.648438 -18.445312 43.109375 -23.3125 43.109375 -30 C 43.109375 -36.65625 41.648438 -41.492188 38.734375 -44.515625 C 35.816406 -47.535156 31.550781 -49.046875 25.9375 -49.046875 L 17.875 -49.046875 Z M 17.875 -10.84375 "/></g></g></g></g></g></g></svg>